<?xml version="1.0" encoding="UTF-8" standalone="no"?>
<!-- Generator: Adobe Illustrator 16.0.0, SVG Export Plug-In . SVG Version: 6.00 Build 0)  -->

<svg
   version="1.1"
   id="Layer_1"
   x="0px"
   y="0px"
   width="128px"
   height="128px"
   viewBox="0 0 128 128"
   enable-background="new 0 0 128 128"
   xml:space="preserve"
   sodipodi:docname="qgs.svg"
   inkscape:version="1.3 (0e150ed6c4, 2023-07-21)"
   xmlns:inkscape="http://www.inkscape.org/namespaces/inkscape"
   xmlns:sodipodi="http://sodipodi.sourceforge.net/DTD/sodipodi-0.dtd"
   xmlns="http://www.w3.org/2000/svg"
   xmlns:svg="http://www.w3.org/2000/svg"><defs
   id="defs4"><inkscape:path-effect
     effect="fillet_chamfer"
     id="path-effect7"
     is_visible="true"
     lpeversion="1"
     nodesatellites_param="F,0,0,1,0,6,0,1 @ F,0,0,1,0,6,0,1 @ F,0,0,1,0,6,0,1 @ F,0,0,1,0,6,0,1"
     radius="6"
     unit="px"
     method="auto"
     mode="F"
     chamfer_steps="1"
     flexible="false"
     use_knot_distance="true"
     apply_no_radius="true"
     apply_with_radius="true"
     only_selected="false"
     hide_knots="false" /><inkscape:path-effect
     effect="fillet_chamfer"
     id="path-effect6"
     is_visible="true"
     lpeversion="1"
     nodesatellites_param="F,0,0,1,0,6,0,1 @ F,0,0,1,0,6,0,1 @ F,0,0,1,0,6,0,1 @ F,0,0,1,0,6,0,1"
     radius="6"
     unit="px"
     method="auto"
     mode="F"
     chamfer_steps="1"
     flexible="false"
     use_knot_distance="true"
     apply_no_radius="true"
     apply_with_radius="true"
     only_selected="false"
     hide_knots="false" /></defs><sodipodi:namedview
   id="namedview4"
   pagecolor="#505050"
   bordercolor="#eeeeee"
   borderopacity="1"
   inkscape:showpageshadow="0"
   inkscape:pageopacity="0"
   inkscape:pagecheckerboard="0"
   inkscape:deskcolor="#505050"
   inkscape:zoom="2.2262815"
   inkscape:cx="83.996565"
   inkscape:cy="54.575308"
   inkscape:window-width="1920"
   inkscape:window-height="1009"
   inkscape:window-x="-8"
   inkscape:window-y="-8"
   inkscape:window-maximized="1"
   inkscape:current-layer="Layer_1" />&#10;    &#10;    <linearGradient
   id="SVGID_1_"
   gradientUnits="userSpaceOnUse"
   x1="402.5244"
   y1="-220.8706"
   x2="400.6479"
   y2="-97.5023"
   gradientTransform="matrix(1,0,0,-1,-300.5195,-92.5547)">&#10;        <stop
   offset="0"
   style="stop-color:#589632"
   id="stop1" />&#10;        <stop
   offset="1"
   style="stop-color:#93B023"
   id="stop2" />&#10;    </linearGradient>&#10;    &#10;    &#10;    <linearGradient
   id="SVGID_2_"
   gradientUnits="userSpaceOnUse"
   x1="365.4619"
   y1="-221.1455"
   x2="363.5923"
   y2="-98.227"
   gradientTransform="matrix(1,0,0,-1,-300.5195,-92.5547)">&#10;        <stop
   offset="0"
   style="stop-color:#589632"
   id="stop3" />&#10;        <stop
   offset="1"
   style="stop-color:#93B023"
   id="stop4" />&#10;    </linearGradient>&#10;    &#10;    <g
   id="g7"
   transform="matrix(0.84941878,0,0,0.84941878,19.389068,-1.8619259)"><polygon
     fill="#ee7913"
     points="71.697,54.625 52.613,54.625 52.613,72.746 68.613,88.548 68.613,69.625 86.891,69.625 "
     id="polygon1" /><polygon
     fill="url(#SVGID_1_)"
     points="76.613,77.625 76.613,96.033 107.143,126.625 126.613,126.625 126.613,109.057 94.488,77.625 "
     id="polygon2"
     style="fill:url(#SVGID_1_)" /><polygon
     fill="#f0e64a"
     points="86.891,69.625 68.613,69.625 68.613,88.548 76.613,96.033 76.613,77.625 94.488,77.625 "
     id="polygon3" /><path
     fill="url(#SVGID_2_)"
     d="m 68.923,101.552 c -1.165,0.242 -1.769,0.157 -4.685,0.157 -20.866,0 -38.612,-17.158 -38.612,-39.406 0,-22.248 17.551,-39.027 38.612,-39.027 21.061,0 37.833,16.78 37.833,39.027 0,3.619 -0.451,7.099 -1.284,10.398 L 120.1,92.012 c 4.979,-8.726 7.765,-18.869 7.765,-29.857 C 127.865,27.866 100.502,2.192 63.849,2.192 27.363,2.191 0,27.696 0,62.154 c 0,34.625 27.363,60.638 63.848,60.638 9.417,0 16.069,-1.469 23.042,-3.761 z"
     id="path4"
     style="fill:url(#SVGID_2_)" /><polygon
     opacity="0.15"
     fill="#ffffff"
     enable-background="new    "
     points="126.613,109.057 126.613,126.625 53.083,54.625 71.697,54.625 "
     id="polygon4" /></g>&#10;<g
   id="g5"
   style="fill:#241f1c"
   transform="matrix(1.3474966,0,0,1.2634436,-0.14598522,-32.252059)"><path
     style="fill:#241f1c;stroke:none;stroke-width:56.8808;stroke-linecap:round;stroke-miterlimit:128.2;paint-order:markers stroke fill"
     id="rect4"
     width="55.473663"
     height="12.758636"
     x="2.4704871"
     y="92.327278"
     inkscape:path-effect="#path-effect7"
     sodipodi:type="rect"
     d="M 8.4704871,92.327278 H 51.94415 a 6,6 45 0 1 6,6 v 0.758637 a 6,6 135 0 1 -6,5.999995 H 8.4704871 a 6,6 45 0 1 -6,-5.999995 v -0.758637 a 6,6 135 0 1 6,-6 z" /><path
     style="fill:#241f1c;stroke:none;stroke-width:58.4169;stroke-linecap:round;stroke-miterlimit:128.2;paint-order:markers stroke fill"
     id="rect5"
     width="13.535983"
     height="54.688805"
     x="23.439327"
     y="70.632278"
     inkscape:path-effect="#path-effect6"
     sodipodi:type="rect"
     d="m 29.439327,70.632278 h 1.535983 a 6,6 45 0 1 6,6 v 42.688802 a 6,6 135 0 1 -6,6 l -1.535983,0 a 6,6 45 0 1 -6,-6 V 76.632278 a 6,6 135 0 1 6,-6 z" /></g></svg>
